<svg width="900" height="260" viewBox="0 0 900 260" fill="none" xmlns="http://www.w3.org/2000/svg">
  <g fill="#FF5A1F">
    <path d="M85 25C66 31.5 53 48.5 53 70.5V82C53 85 55.3 87.3 58.3 87.3C61.3 87.3 63.6 85 63.6 82V70.5C63.6 54.8 73.7 41.1 88 36.1V25H85Z"/>
    <path d="M87.8 53.3C69.2 53.3 54 68.5 54 87.1C54 105.8 69.2 121 87.8 121C106.5 121 121.7 105.8 121.7 87.1C121.7 68.5 106.5 53.3 87.8 53.3ZM91.8 102.1C91.8 105.8 88.8 108.8 85.1 108.8C81.4 108.8 78.4 105.8 78.4 102.1V72.3C78.4 68.6 81.4 65.6 85.1 65.6C88.8 65.6 91.8 68.6 91.8 72.3V102.1Z"/>
    <path d="M146 157.3V107H183.5C195.8 107 204.7 109.5 210 114.4C215.4 119.2 218.1 126 218.1 134.7C218.1 140 217 144.5 214.8 148.1C212.7 151.6 209.6 154.2 205.7 156C210.2 157.3 213.7 159.7 216.3 163.3C218.9 166.8 220.2 171.5 220.2 177.2C220.2 186.8 217.2 194.2 211.3 199.2C205.3 204.2 196.8 206.7 185.7 206.7H146V157.3ZM164 148H177.6C182.7 148 186.6 146.8 189.3 144.4C192 142 193.4 138.6 193.4 134.2C193.4 129.4 192 125.9 189.2 123.6C186.4 121.3 182.1 120.2 176.3 120.2H164V148ZM164 192.9H180.1C185.1 192.9 189 191.7 191.8 189.3C194.7 186.8 196.1 183.2 196.1 178.5C196.1 173.5 194.8 169.7 192.2 167.1C189.7 164.5 185.8 163.2 180.4 163.2H164V192.9Z"/>
    <path d="M235.6 206.7V133.2H253.2L253.8 143.1C256.2 139.7 259.2 136.9 262.7 134.9C266.2 132.9 270.3 131.9 275 131.9C277.1 131.9 278.9 132.1 280.4 132.5V148.3C279.3 148 278.1 147.8 276.7 147.7C275.4 147.5 273.8 147.4 272 147.4C268.1 147.4 264.7 148.3 261.7 150C258.7 151.6 256.2 154.1 254.2 157.4V206.7H235.6Z"/>
    <path d="M321.5 208.1C313.5 208.1 306.4 206.5 300.1 203.2C293.9 199.9 289 195.3 285.5 189.4C282 183.5 280.2 176.5 280.2 168.4C280.2 160.1 282 152.8 285.4 146.7C288.8 140.5 293.6 135.7 299.6 132.3C305.7 128.9 312.5 127.1 320 127.1C327.5 127.1 333.9 128.7 339.2 132C344.5 135.2 348.6 139.8 351.6 145.6C354.5 151.4 356 158.3 356 166.1V171.7H298.9C299.4 178.8 301.8 184.3 306 188.2C310.3 192 315.5 194 321.9 194C326.7 194 330.9 193 334.5 191.1C338.2 189.2 341.4 186.6 344 183.3L353.6 192.8C350.2 197.2 345.9 200.8 340.6 203.5C335.3 206.2 329 207.5 321.5 207.5V208.1Z"/>
    <path d="M319.9 140.9C314.7 140.9 310.1 142.4 306 145.4C302 148.4 299.6 153.1 298.9 159.4H338.4V158.4C338 152.4 336.1 147.9 332.7 144.8C329.2 141.7 325 140.2 319.9 140.2V140.9Z"/>
    <path d="M388.3 206.7L374.5 133.2H391.9L399.3 183.7L410.4 133.2H424.8L435.8 183.7L443.2 133.2H460.7L446.9 206.7H431.9L417.6 157.7L403.3 206.7H388.3Z"/>
    <path d="M474.9 206.7V107H493V206.7H474.9Z"/>
    <path d="M511.5 206.7V133.2H529.5V206.7H511.5ZM520.5 121.9C517.2 121.9 514.4 120.9 512.1 118.8C509.8 116.7 508.7 114 508.7 110.6C508.7 107.3 509.8 104.6 512.1 102.5C514.4 100.4 517.2 99.3 520.5 99.3C523.8 99.3 526.6 100.4 528.9 102.5C531.2 104.6 532.3 107.3 532.3 110.6C532.3 114 531.2 116.7 528.9 118.8C526.6 120.9 523.8 121.9 520.5 121.9Z"/>
    <path d="M566.5 208.1C560.2 208.1 554.4 207.4 549 205.9C543.7 204.3 539.3 202 535.9 199L544.4 187.1C547.9 189.6 551.4 191.5 554.9 192.7C558.4 193.9 562.3 194.5 566.6 194.5C570.7 194.5 573.8 193.8 576 192.4C578.3 191 579.4 189 579.4 186.5C579.4 183.8 578 181.8 575.1 180.6C572.2 179.3 567.5 178.1 561 176.8C553.7 175.3 548.1 172.9 544.2 169.6C540.4 166.2 538.5 161.6 538.5 155.6C538.5 150.2 540 145.5 543 141.5C546 137.4 550.1 134.2 555.4 131.9C560.8 129.6 566.8 128.4 573.6 128.4C579.4 128.4 584.8 129.1 589.8 130.6C594.9 132.1 599.2 134.5 602.8 137.6L594.6 149.3C591.6 147 588.5 145.3 585.3 144.1C582.1 142.9 578.5 142.3 574.4 142.3C570.6 142.3 567.6 143 565.4 144.4C563.3 145.7 562.2 147.6 562.2 150C562.2 152.5 563.4 154.3 565.8 155.4C568.3 156.6 572.7 157.7 579 158.8C587 160.4 593.1 163 597.2 166.4C601.3 169.8 603.3 174.5 603.3 180.4C603.3 186 601.7 190.8 598.4 194.8C595.2 198.7 590.8 201.7 585.3 203.9C579.9 206.1 573.6 207.2 566.5 207.2V208.1Z"/>
    <path d="M641.5 208.1C635.2 208.1 629.4 207.4 624 205.9C618.7 204.3 614.3 202 610.9 199L619.4 187.1C622.9 189.6 626.4 191.5 629.9 192.7C633.4 193.9 637.3 194.5 641.6 194.5C645.7 194.5 648.8 193.8 651 192.4C653.3 191 654.4 189 654.4 186.5C654.4 183.8 653 181.8 650.1 180.6C647.2 179.3 642.5 178.1 636 176.8C628.7 175.3 623.1 172.9 619.2 169.6C615.4 166.2 613.5 161.6 613.5 155.6C613.5 150.2 615 145.5 618 141.5C621 137.4 625.1 134.2 630.4 131.9C635.8 129.6 641.8 128.4 648.6 128.4C654.4 128.4 659.8 129.1 664.8 130.6C669.9 132.1 674.2 134.5 677.8 137.6L669.6 149.3C666.6 147 663.5 145.3 660.3 144.1C657.1 142.9 653.5 142.3 649.4 142.3C645.6 142.3 642.6 143 640.4 144.4C638.3 145.7 637.2 147.6 637.2 150C637.2 152.5 638.4 154.3 640.8 155.4C643.3 156.6 647.7 157.7 654 158.8C662 160.4 668.1 163 672.2 166.4C676.3 169.8 678.3 174.5 678.3 180.4C678.3 186 676.7 190.8 673.4 194.8C670.2 198.7 665.8 201.7 660.3 203.9C654.9 206.1 648.6 207.2 641.5 207.2V208.1Z"/>
  </g>
</svg>
