<svg width="600" height="420" viewBox="0 0 600 420" fill="none" xmlns="http://www.w3.org/2000/svg">
  <rect width="600" height="420" fill="white"/>
  <g fill="#FF5A1F">
    <path d="M304 55C250.5 72.2 214 121.2 214 178.5V210.5C214 214.9 217.6 218.5 222 218.5C226.4 218.5 230 214.9 230 210.5V178.5C230 130.1 260.8 88.3 307 73.1V55H304Z"/>
    <path d="M308 97C255.7 97 213 139.7 213 192C213 244.3 255.7 287 308 287C360.3 287 403 244.3 403 192C403 139.7 360.3 97 308 97ZM319 233C319 241.3 312.3 248 304 248C295.7 248 289 241.3 289 233V151C289 142.7 295.7 136 304 136C312.3 136 319 142.7 319 151V233Z"/>
    <path d="M69 341.8V273H114.1C130.9 273 143 276.4 150.3 283.2C157.7 290 161.4 299.5 161.4 311.8C161.4 319.2 159.8 325.3 156.6 330.2C153.5 335 149.2 338.6 143.7 341C149.8 342.8 154.6 346.1 158.1 351C161.7 355.8 163.5 362.1 163.5 370C163.5 383.1 159.5 393.2 151.4 400.1C143.3 406.9 131.7 410.3 116.5 410.3H69V341.8ZM93.6 329.1H112.4C119.4 329.1 124.7 327.5 128.4 324.3C132.1 321 134 316.4 134 310.5C134 304 132.1 299.2 128.2 296.1C124.4 292.9 118.6 291.3 110.7 291.3H93.6V329.1ZM93.6 391.9H115.7C122.6 391.9 128 390.2 131.8 386.8C135.7 383.4 137.6 378.5 137.6 372C137.6 365.1 135.8 359.9 132.3 356.4C128.8 352.8 123.4 351 116.1 351H93.6V391.9Z"/>
    <path d="M184.3 410.3V309.7H208.3L209.1 323.2C212.4 318.5 216.4 314.7 221.1 312C225.9 309.2 231.5 307.8 238 307.8C240.9 307.8 243.4 308.1 245.4 308.7V330.4C243.9 330 242.3 329.7 240.4 329.5C238.6 329.3 236.5 329.2 234 329.2C228.7 329.2 224 330.4 219.9 332.7C215.8 334.9 212.4 338.3 209.7 342.8V410.3H184.3Z"/>
    <path d="M303.5 412.3C292.6 412.3 282.9 410.1 274.3 405.7C265.8 401.2 259.1 394.9 254.2 386.8C249.4 378.7 247 369.1 247 358C247 346.6 249.4 336.7 254.1 328.3C258.8 319.8 265.3 313.2 273.5 308.5C281.8 303.8 291 301.4 301.2 301.4C311.4 301.4 320.1 303.6 327.3 308.1C334.5 312.5 340.1 318.7 344.2 326.7C348.2 334.7 350.2 344.1 350.2 354.8V362.4H272.6C273.4 372 276.6 379.5 282.3 384.8C288.1 390 295.3 392.6 304 392.6C310.5 392.6 316.2 391.3 321.1 388.8C326.1 386.2 330.4 382.7 334 378.3L347.1 391.2C342.5 397.2 336.6 402.1 329.4 405.8C322.2 409.5 313.6 411.4 303.5 411.4V412.3ZM301.2 320.2C294.2 320.2 288 322.3 282.4 326.4C276.9 330.5 273.6 336.9 272.6 345.5H326.2V344.1C325.6 335.9 323 329.7 318.3 325.6C313.6 321.4 307.9 319.3 301.2 319.3V320.2Z"/>
    <path d="M394.6 410.3L375.8 309.7H399.5L409.6 378.8L424.8 309.7H444.5L459.6 378.7L469.7 309.7H493.5L474.7 410.3H454.3L434.7 343.4L415.2 410.3H394.6Z"/>
    <path d="M512.8 410.3V273H537.4V410.3H512.8Z"/>
    <path d="M563.2 410.3V309.7H587.8V410.3H563.2ZM575.5 293.6C570.9 293.6 567 292.2 563.8 289.4C560.7 286.5 559.1 282.8 559.1 278.2C559.1 273.6 560.7 269.9 563.8 267C567 264.1 570.9 262.7 575.5 262.7C580 262.7 583.9 264.1 587 267C590.2 269.9 591.8 273.6 591.8 278.2C591.8 282.8 590.2 286.5 587 289.4C583.9 292.2 580 293.6 575.5 293.6Z"/>
  </g>
</svg>
