<svg width="760" height="140" viewBox="0 0 760 140" fill="none" xmlns="http://www.w3.org/2000/svg">
  <g fill="#FF5A1F">
    <path d="M21 99.3V49H58.5C70.8 49 79.7 51.5 85 56.4C90.4 61.2 93.1 68 93.1 76.7C93.1 82 92 86.5 89.8 90.1C87.7 93.6 84.6 96.2 80.7 98C85.2 99.3 88.7 101.7 91.3 105.3C93.9 108.8 95.2 113.5 95.2 119.2C95.2 128.8 92.2 136.2 86.3 141.2C80.3 146.2 71.8 148.7 60.7 148.7H21V99.3ZM39 90H52.6C57.7 90 61.6 88.8 64.3 86.4C67 84 68.4 80.6 68.4 76.2C68.4 71.4 67 67.9 64.2 65.6C61.4 63.3 57.1 62.2 51.3 62.2H39V90ZM39 134.9H55.1C60.1 134.9 64 133.7 66.8 131.3C69.7 128.8 71.1 125.2 71.1 120.5C71.1 115.5 69.8 111.7 67.2 109.1C64.7 106.5 60.8 105.2 55.4 105.2H39V134.9Z"/>
    <path d="M110.6 148.7V75.2H128.2L128.8 85.1C131.2 81.7 134.2 78.9 137.7 76.9C141.2 74.9 145.3 73.9 150 73.9C152.1 73.9 153.9 74.1 155.4 74.5V90.3C154.3 90 153.1 89.8 151.7 89.7C150.4 89.5 148.8 89.4 147 89.4C143.1 89.4 139.7 90.3 136.7 92C133.7 93.6 131.2 96.1 129.2 99.4V148.7H110.6Z"/>
    <path d="M196.5 150.1C188.5 150.1 181.4 148.5 175.1 145.2C168.9 141.9 164 137.3 160.5 131.4C157 125.5 155.2 118.5 155.2 110.4C155.2 102.1 157 94.8 160.4 88.7C163.8 82.5 168.6 77.7 174.6 74.3C180.7 70.9 187.5 69.1 195 69.1C202.5 69.1 208.9 70.7 214.2 74C219.5 77.2 223.6 81.8 226.6 87.6C229.5 93.4 231 100.3 231 108.1V113.7H173.9C174.4 120.8 176.8 126.3 181 130.2C185.3 134 190.5 136 196.9 136C201.7 136 205.9 135 209.5 133.1C213.2 131.2 216.4 128.6 219 125.3L228.6 134.8C225.2 139.2 220.9 142.8 215.6 145.5C210.3 148.2 204 149.5 196.5 149.5V150.1Z"/>
    <path d="M194.9 82.9C189.7 82.9 185.1 84.4 181 87.4C177 90.4 174.6 95.1 173.9 101.4H213.4V100.4C213 94.4 211.1 89.9 207.7 86.8C204.2 83.7 200 82.2 194.9 82.2V82.9Z"/>
    <path d="M263.3 148.7L249.5 75.2H266.9L274.3 125.7L285.4 75.2H299.8L310.8 125.7L318.2 75.2H335.7L321.9 148.7H306.9L292.6 99.7L278.3 148.7H263.3Z"/>
    <path d="M349.9 148.7V49H368V148.7H349.9Z"/>
    <path d="M386.5 148.7V75.2H404.5V148.7H386.5ZM395.5 63.9C392.2 63.9 389.4 62.9 387.1 60.8C384.8 58.7 383.7 56 383.7 52.6C383.7 49.3 384.8 46.6 387.1 44.5C389.4 42.4 392.2 41.3 395.5 41.3C398.8 41.3 401.6 42.4 403.9 44.5C406.2 46.6 407.3 49.3 407.3 52.6C407.3 56 406.2 58.7 403.9 60.8C401.6 62.9 398.8 63.9 395.5 63.9Z"/>
    <path d="M441.5 150.1C435.2 150.1 429.4 149.4 424 147.9C418.7 146.3 414.3 144 410.9 141L419.4 129.1C422.9 131.6 426.4 133.5 429.9 134.7C433.4 135.9 437.3 136.5 441.6 136.5C445.7 136.5 448.8 135.8 451 134.4C453.3 133 454.4 131 454.4 128.5C454.4 125.8 453 123.8 450.1 122.6C447.2 121.3 442.5 120.1 436 118.8C428.7 117.3 423.1 114.9 419.2 111.6C415.4 108.2 413.5 103.6 413.5 97.6C413.5 92.2 415 87.5 418 83.5C421 79.4 425.1 76.2 430.4 73.9C435.8 71.6 441.8 70.4 448.6 70.4C454.4 70.4 459.8 71.1 464.8 72.6C469.9 74.1 474.2 76.5 477.8 79.6L469.6 91.3C466.6 89 463.5 87.3 460.3 86.1C457.1 84.9 453.5 84.3 449.4 84.3C445.6 84.3 442.6 85 440.4 86.4C438.3 87.7 437.2 89.6 437.2 92C437.2 94.5 438.4 96.3 440.8 97.4C443.3 98.6 447.7 99.7 454 100.8C462 102.4 468.1 105 472.2 108.4C476.3 111.8 478.3 116.5 478.3 122.4C478.3 128 476.7 132.8 473.4 136.8C470.2 140.7 465.8 143.7 460.3 145.9C454.9 148.1 448.6 149.2 441.5 149.2V150.1Z"/>
    <path d="M516.5 150.1C510.2 150.1 504.4 149.4 499 147.9C493.7 146.3 489.3 144 485.9 141L494.4 129.1C497.9 131.6 501.4 133.5 504.9 134.7C508.4 135.9 512.3 136.5 516.6 136.5C520.7 136.5 523.8 135.8 526 134.4C528.3 133 529.4 131 529.4 128.5C529.4 125.8 528 123.8 525.1 122.6C522.2 121.3 517.5 120.1 511 118.8C503.7 117.3 498.1 114.9 494.2 111.6C490.4 108.2 488.5 103.6 488.5 97.6C488.5 92.2 490 87.5 493 83.5C496 79.4 500.1 76.2 505.4 73.9C510.8 71.6 516.8 70.4 523.6 70.4C529.4 70.4 534.8 71.1 539.8 72.6C544.9 74.1 549.2 76.5 552.8 79.6L544.6 91.3C541.6 89 538.5 87.3 535.3 86.1C532.1 84.9 528.5 84.3 524.4 84.3C520.6 84.3 517.6 85 515.4 86.4C513.3 87.7 512.2 89.6 512.2 92C512.2 94.5 513.4 96.3 515.8 97.4C518.3 98.6 522.7 99.7 529 100.8C537 102.4 543.1 105 547.2 108.4C551.3 111.8 553.3 116.5 553.3 122.4C553.3 128 551.7 132.8 548.4 136.8C545.2 140.7 540.8 143.7 535.3 145.9C529.9 148.1 523.6 149.2 516.5 149.2V150.1Z"/>
  </g>
</svg>
